{
  "accessors": [
    {
      "bufferView": 2,
      "componentType": 5126,
      "count": 20194,
      "max": [
        0.45844995975494385,
        0.20384356379508972,
        1.2976800203323364
      ],
      "min": [
        -0.4584500193595886,
        -0.25933998823165894,
        -0.0011000632075592875
      ],
      "type": "VEC3"
    },
    {
      "bufferView": 2,
      "byteOffset": 242328,
      "componentType": 5126,
      "count": 20194,
      "max": [
        1.0000073909759521,
        1.0000053644180298,
        1.0000044107437134
      ],
      "min": [
        -1.000000238418579,
        -1.000004768371582,
        -1.0000064373016357
      ],
      "type": "VEC3"
    },
    {
      "bufferView": 1,
      "componentType": 5126,
      "count": 20194,
      "max": [
        0.9859799742698669,
        0.9305300116539001
      ],
      "min": [
        0.023189999163150787,
        0.023420000448822975
      ],
      "type": "VEC2"
    },
    {
      "bufferView": 1,
      "byteOffset": 161552,
      "componentType": 5126,
      "count": 20194,
      "max": [
        0.9859799742698669,
        0.9305300116539001
      ],
      "min": [
        0.023189999163150787,
        0.023420000448822975
      ],
      "type": "VEC2"
    },
    {
      "bufferView": 0,
      "componentType": 5125,
      "count": 107616,
      "type": "SCALAR"
    },
    {
      "bufferView": 3,
      "componentType": 5126,
      "count": 1,
      "max": [
        1.0,
        0.0,
        0.0,
        0.0,
        0.0,
        1.0,
        0.0,
        0.0,
        0.0,
        0.0,
        1.0,
        0.0,
        0.0,
        0.0,
        0.0,
        1.0
      ],
      "min": [
        1.0,
        0.0,
        0.0,
        0.0,
        0.0,
        1.0,
        0.0,
        0.0,
        0.0,
        0.0,
        1.0,
        0.0,
        0.0,
        0.0,
        0.0,
        1.0
      ],
      "type": "MAT4"
    }
  ],
  "asset": {
    "extras": {
      "author": "Derp Land",
      "license": "CC-BY-4.0",
      "source": "https://sketchfab.com/3d-models/mokey-mokey-vr-chat-yu-gi-oh-75dde546cbfe4466af55fa9258fed9aa",
      "title": "Mokey Mokey - VR Chat - Yu-Gi-Oh!"
    },
    "generator": "Sketchfab-12.67.0",
    "version": "2.0"
  },
  "bufferViews": [
    {
      "buffer": 0,
      "byteLength": 430464,
      "name": "floatBufferViews",
      "target": 34963
    },
    {
      "buffer": 0,
      "byteLength": 323104,
      "byteOffset": 430464,
      "byteStride": 8,
      "name": "floatBufferViews",
      "target": 34962
    },
    {
      "buffer": 0,
      "byteLength": 484656,
      "byteOffset": 753568,
      "byteStride": 12,
      "name": "floatBufferViews",
      "target": 34962
    },
    {
      "buffer": 0,
      "byteLength": 64,
      "byteOffset": 1238224,
      "name": "floatBufferViews"
    }
  ],
  "buffers": [
    {
      "byteLength": 1238288,
      "uri": "scene.bin"
    }
  ],
  "images": [
    {
      "uri": "textures/MokeyMokey_baseColor.png"
    },
    {
      "uri": "textures/MokeyMokey_metallicRoughness.png"
    }
  ],
  "materials": [
    {
      "doubleSided": true,
      "name": "MokeyMokey",
      "pbrMetallicRoughness": {
        "baseColorTexture": {
          "index": 0
        },
        "metallicRoughnessTexture": {
          "index": 1
        }
      }
    }
  ],
  "meshes": [
    {
      "name": "MokeyMokey_0",
      "primitives": [
        {
          "attributes": {
            "NORMAL": 1,
            "POSITION": 0,
            "TEXCOORD_0": 2,
            "TEXCOORD_1": 3
          },
          "indices": 4,
          "material": 0,
          "mode": 4
        }
      ]
    }
  ],
  "nodes": [
    {
      "children": [
        1
      ],
      "matrix": [
        1.0,
        0.0,
        0.0,
        0.0,
        0.0,
        2.220446049250313e-16,
        -1.0,
        0.0,
        0.0,
        1.0,
        2.220446049250313e-16,
        0.0,
        0.0,
        0.0,
        0.0,
        1.0
      ],
      "name": "Sketchfab_model"
    },
    {
      "children": [
        2
      ],
      "name": "Root"
    },
    {
      "children": [
        3,
        4
      ],
      "matrix": [
        0.003980000000000001,
        0.0,
        0.0,
        0.0,
        0.0,
        -0.0,
        0.003980000000000001,
        0.0,
        0.0,
        -0.003980000000000001,
        -0.0,
        0.0,
        0.0,
        0.0,
        0.0,
        1.0
      ],
      "name": "MokeyMokey-Armature"
    },
    {
      "name": "MokeyMokey-Armature_rootJoint"
    },
    {
      "children": [
        5
      ],
      "matrix": [
        251.10287,
        0.0,
        0.0,
        0.0,
        0.0,
        -4.000000000000002e-05,
        -251.10287,
        0.0,
        0.0,
        251.10287,
        -4.000000000000002e-05,
        0.0,
        0.0,
        0.0,
        0.0,
        1.0
      ],
      "name": "MokeyMokey"
    },
    {
      "mesh": 0,
      "name": "MokeyMokey_0"
    }
  ],
  "samplers": [
    {
      "magFilter": 9729,
      "minFilter": 9987,
      "wrapS": 10497,
      "wrapT": 10497
    }
  ],
  "scene": 0,
  "scenes": [
    {
      "name": "Sketchfab_Scene",
      "nodes": [
        0
      ]
    }
  ],
  "skins": [
    {
      "inverseBindMatrices": 5,
      "joints": [
        3
      ],
      "skeleton": 3
    }
  ],
  "textures": [
    {
      "sampler": 0,
      "source": 0
    },
    {
      "sampler": 0,
      "source": 1
    }
  ]
}
